<?xml version="1.0" standalone="no"?>
<!DOCTYPE svg PUBLIC "-//W3C//DTD SVG 20010904//EN"
 "http://www.w3.org/TR/2001/REC-SVG-20010904/DTD/svg10.dtd">
<svg version="1.0" xmlns="http://www.w3.org/2000/svg"
 width="2500.000000pt" height="1600.000000pt" viewBox="0 0 2500.000000 1600.000000"
 preserveAspectRatio="xMidYMid meet">
<metadata>
Created by potrace 1.13, written by Peter Selinger 2001-2015
</metadata>
<g transform="translate(0.000000,1600.000000) scale(0.100000,-0.100000)"
fill="#000000" stroke="none">
<path d="M13700 14970 l0 -230 -2513 0 -2512 0 -228 -228 -227 -227 0 -3428 0
-3427 915 0 915 0 0 455 0 455 -455 0 -455 0 0 2745 0 2745 2280 0 2280 0 2
-227 3 -228 228 -3 227 -2 0 -228 0 -227 226 -232 226 -233 237 0 238 0 226
235 227 234 0 226 0 225 225 0 225 0 0 230 0 230 455 0 455 0 0 -2745 0 -2745
-455 0 -455 0 0 -455 0 -455 915 0 915 0 0 3428 0 3427 -228 228 -227 227
-688 0 -687 0 0 230 0 230 -1145 0 -1145 0 0 -230z"/>
<path d="M12904 11569 c-129 -21 -324 -102 -454 -188 -30 -19 -116 -94 -190
-165 -175 -167 -365 -336 -379 -336 -15 0 -15 2 23 132 47 160 59 251 42 317
-32 123 -150 174 -272 117 -59 -27 -116 -81 -143 -134 -31 -61 -69 -194 -82
-287 -15 -108 -34 -133 -126 -170 -105 -42 -173 -84 -233 -145 -72 -73 -105
-136 -135 -258 -31 -126 -51 -172 -131 -303 -106 -174 -126 -268 -82 -386 31
-85 134 -184 256 -247 125 -64 127 -67 112 -208 -34 -314 63 -563 284 -732
104 -80 201 -132 434 -235 248 -109 237 -104 237 -127 0 -14 -45 -43 -176
-114 -220 -119 -237 -130 -288 -185 -58 -63 -56 -91 9 -146 54 -46 61 -68 40
-139 -25 -85 21 -163 118 -202 79 -31 269 -30 427 1 184 37 199 38 240 7 79
-61 201 -99 420 -131 149 -23 449 -23 619 -1 394 51 607 144 719 314 29 46 36
49 207 112 145 54 223 93 336 168 124 84 195 150 253 238 136 203 117 415 -45
510 -33 19 -65 28 -131 34 -100 9 -106 14 -123 99 -24 117 -72 300 -107 406
-190 579 -492 900 -920 981 -70 13 -124 15 -263 11 -205 -6 -306 -25 -515 -95
-128 -43 -148 -47 -230 -46 -221 3 -418 122 -508 307 -67 138 -64 163 26 206
34 16 139 59 232 96 191 75 397 175 489 237 88 59 267 210 322 271 90 99 107
188 57 288 -60 117 -182 159 -369 128z"/>
<path d="M8150 3585 l0 -1785 268 2 267 3 0 1780 0 1780 -267 3 -268 2 0
-1785z"/>
<path d="M14130 4668 l-1 -703 -32 40 c-144 179 -323 301 -520 355 -203 56
-480 40 -711 -40 -92 -31 -242 -116 -331 -185 -320 -250 -479 -593 -478 -1035
1 -174 13 -279 49 -419 118 -455 503 -818 948 -896 161 -28 381 -18 536 25
186 51 312 130 459 286 l81 87 0 -192 0 -191 268 2 267 3 0 1780 0 1780 -267
3 -268 2 0 -702z m-582 -764 c205 -43 405 -215 507 -438 65 -140 91 -312 75
-488 -13 -138 -31 -205 -84 -313 -98 -197 -254 -330 -466 -396 -105 -33 -290
-33 -403 -1 -136 39 -239 99 -344 203 -149 147 -220 308 -238 539 -12 165 19
322 97 480 46 94 62 116 152 205 79 79 119 110 181 142 169 87 328 107 523 67z"/>
<path d="M20840 3585 l0 -1785 268 2 267 3 3 365 2 365 193 193 193 193 344
-508 c189 -279 361 -532 382 -560 l39 -53 320 0 c260 0 320 2 316 13 -3 7
-235 354 -517 770 -281 417 -510 761 -508 766 2 5 192 206 423 447 231 242
447 467 479 502 l59 62 -345 0 -344 0 -515 -538 -514 -539 -5 1041 -5 1041
-267 3 -268 2 0 -1785z"/>
<path d="M1840 3481 l0 -1681 283 2 282 3 3 491 2 492 453 5 c481 5 534 9 754
62 402 96 656 307 768 635 98 289 93 687 -12 986 -116 326 -383 536 -798 628
-209 46 -268 49 -1017 53 l-718 5 0 -1681z m1270 1159 c464 -26 684 -158 745
-445 19 -92 19 -291 -1 -396 -21 -114 -86 -248 -153 -316 -60 -61 -162 -114
-271 -142 -125 -32 -276 -41 -657 -41 l-363 0 0 675 0 675 263 0 c144 0 341
-5 437 -10z"/>
<path d="M6065 4390 c-404 -29 -744 -222 -987 -561 -143 -200 -214 -421 -224
-699 -7 -172 5 -275 51 -435 94 -334 373 -654 699 -805 198 -91 379 -125 635
-117 296 9 496 69 714 214 202 134 383 347 475 558 76 174 106 329 106 545 0
361 -114 644 -361 901 -187 194 -417 322 -668 373 -65 13 -316 39 -335 34 -3
0 -50 -4 -105 -8z m342 -501 c284 -65 508 -301 574 -604 20 -93 18 -324 -5
-420 -72 -311 -298 -537 -601 -600 -151 -31 -364 -14 -498 40 -221 89 -394
285 -459 524 -18 63 -22 106 -22 246 -1 147 2 181 22 252 66 243 229 434 449
527 155 65 354 78 540 35z"/>
<path d="M16453 4389 c-303 -23 -569 -142 -793 -356 -200 -190 -298 -377 -360
-683 -18 -90 -24 -336 -11 -446 46 -372 191 -642 461 -858 150 -120 284 -186
480 -238 100 -26 138 -31 287 -35 437 -14 767 96 1053 351 36 32 66 62 68 67
2 5 -64 82 -146 172 l-150 164 -69 -65 c-111 -105 -232 -167 -406 -209 -55
-14 -113 -18 -252 -17 -167 0 -186 2 -268 27 -269 83 -461 262 -512 478 -8 35
-15 74 -15 87 l0 22 1000 0 1000 0 0 231 c0 264 -14 390 -62 539 -52 163 -114
266 -237 393 -207 214 -501 353 -789 372 -48 3 -107 7 -132 9 -25 2 -91 0
-147 -5z m320 -475 c40 -8 114 -36 165 -61 203 -99 319 -272 338 -503 l7 -80
-732 0 -731 0 0 38 c0 57 27 168 53 225 84 182 305 341 538 386 76 15 284 12
362 -5z"/>
<path d="M19250 4393 c-268 -13 -479 -85 -650 -220 -176 -139 -262 -318 -264
-548 -1 -90 3 -123 22 -178 62 -187 225 -342 470 -447 48 -21 182 -68 297
-105 236 -75 339 -119 437 -182 124 -81 159 -181 104 -298 -126 -272 -651
-235 -1121 79 -55 37 -103 65 -107 64 -5 -2 -64 -93 -133 -203 -86 -139 -121
-203 -114 -211 23 -28 185 -128 287 -179 135 -67 339 -136 487 -165 140 -28
380 -38 508 -20 302 41 563 208 674 432 57 115 77 206 78 353 0 151 -11 207
-66 322 -47 99 -106 162 -223 238 -153 100 -337 175 -596 245 -301 81 -381
111 -436 167 -77 77 -63 231 27 307 82 69 182 96 359 96 229 0 441 -59 627
-174 l41 -26 102 197 102 197 -24 17 c-37 29 -227 124 -303 153 -174 64 -397
99 -585 89z"/>
<path d="M9120 4356 c0 -2 159 -402 354 -887 379 -948 556 -1397 631 -1603 46
-129 46 -130 35 -194 -33 -189 -181 -334 -357 -349 -116 -9 -219 24 -331 109
-30 22 -58 36 -62 32 -5 -5 -48 -79 -95 -164 -48 -85 -100 -178 -117 -207
l-29 -52 63 -50 c80 -64 209 -131 318 -166 124 -39 308 -46 435 -16 236 57
447 228 565 461 23 44 1248 3038 1257 3073 5 16 -11 17 -282 15 l-288 -3 -380
-939 c-210 -516 -383 -935 -384 -930 -2 5 -173 428 -381 939 l-377 930 -288 3
c-158 1 -287 0 -287 -2z"/>
</g>
</svg>
